<svg width="24" height="20" viewBox="0 0 24 20" fill="none" xmlns="http://www.w3.org/2000/svg">
<mask id="path-1-inside-1_594_6118" fill="white">
<path d="M7.98953 0.0167003C9.29953 -0.172028 10.6872 1.26009 11.0869 3.23619C11.4866 5.20119 10.765 6.95525 9.45495 7.15508C8.15606 7.35491 6.75724 5.9228 6.34648 3.9467C5.93572 1.9817 6.67953 0.227632 7.98953 0.0167003M15.9272 0.0167003C17.2483 0.227632 17.981 1.9817 17.5925 3.9467C17.1706 5.9228 15.7829 7.35491 14.4729 7.15508C13.1518 6.95525 12.4302 5.20119 12.841 3.23619C13.2406 1.26009 14.6283 -0.172028 15.9272 0.0167003M2.05013 5.12347C3.31572 4.57949 5.03648 5.56754 5.93572 7.2883C6.77945 9.04237 6.4908 10.8852 5.23631 11.4292C3.98182 11.9732 2.27216 10.9963 1.39513 9.2533C0.518098 7.51034 0.828945 5.65635 2.05013 5.12347ZM22.0332 5.12347C23.2543 5.65635 23.5652 7.51034 22.6882 9.2533C21.8111 10.9963 20.1015 11.9732 18.847 11.4292C17.5925 10.8852 17.3038 9.04237 18.1476 7.2883C19.0468 5.56754 20.7676 4.57949 22.0332 5.12347ZM20.1792 17.0911C20.2236 18.1346 19.4243 19.2892 18.4695 19.7222C16.4823 20.6325 14.1288 18.7452 11.9195 18.7452C9.71029 18.7452 7.33453 20.7102 5.38063 19.7222C4.27047 19.1782 3.50445 17.735 3.64877 16.536C3.8486 14.8819 5.8358 13.9937 7.01258 12.7836C8.57792 11.2183 9.68809 8.27635 11.9195 8.27635C14.1399 8.27635 15.3166 11.1739 16.8154 12.7836C18.0477 14.138 20.1015 15.2815 20.1792 17.0911Z"/>
</mask>
<path d="M11.0869 3.23619L9.12659 3.63266L9.12703 3.63481L11.0869 3.23619ZM9.45495 7.15508L9.15336 5.17795L9.15084 5.17834L9.45495 7.15508ZM6.34648 3.9467L8.30463 3.53967L8.30417 3.53746L6.34648 3.9467ZM17.5925 3.9467L19.5484 4.36425L19.5516 4.34948L19.5545 4.33466L17.5925 3.9467ZM14.4729 7.15508L14.7745 5.17795L14.772 5.17758L14.4729 7.15508ZM12.841 3.23619L14.7987 3.64543L14.8013 3.63266L12.841 3.23619ZM2.05013 5.12347L1.26033 3.28599L1.25024 3.2904L2.05013 5.12347ZM5.93572 7.2883L7.73805 6.42136L7.72366 6.39143L7.70828 6.362L5.93572 7.2883ZM22.0332 5.12347L22.8331 3.29037L22.8229 3.28602L22.0332 5.12347ZM18.1476 7.2883L16.375 6.362L16.3596 6.39143L16.3452 6.42136L18.1476 7.2883ZM20.1792 17.0911L22.1774 17.0061L22.1773 17.0053L20.1792 17.0911ZM18.4695 19.7222L17.6435 17.9007L17.6366 17.9039L18.4695 19.7222ZM5.38063 19.7222L6.28317 17.9374L6.27195 17.9317L6.26067 17.9262L5.38063 19.7222ZM3.64877 16.536L1.66321 16.2961L1.66311 16.297L3.64877 16.536ZM7.01258 12.7836L5.59837 11.3694L5.5885 11.3793L5.57877 11.3893L7.01258 12.7836ZM16.8154 12.7836L18.2947 11.4377L18.287 11.4292L18.2792 11.4208L16.8154 12.7836ZM8.27472 1.99626C8.08009 2.0243 8.15169 1.90399 8.43984 2.20284C8.70698 2.47989 8.99353 2.97473 9.12659 3.63266L13.0472 2.83972C12.7806 1.52154 12.1735 0.312275 11.3193 -0.573574C10.4862 -1.43763 9.20897 -2.17963 7.70434 -1.96286L8.27472 1.99626ZM9.12703 3.63481C9.26153 4.29613 9.18091 4.81111 9.06472 5.09117C8.94716 5.37454 8.90978 5.21511 9.15336 5.17795L9.75655 9.13221C11.3101 8.89523 12.2886 7.75885 12.7594 6.62398C13.2316 5.4858 13.3119 4.14124 13.0468 2.83757L9.12703 3.63481ZM9.15084 5.17834C9.36162 5.14591 9.29645 5.27621 9.00232 4.97339C8.73203 4.69511 8.44148 4.19806 8.30462 3.53967L4.38834 4.35373C4.66224 5.67143 5.27648 6.87848 6.13301 7.76033C6.9657 8.61764 8.24939 9.36408 9.75907 9.13183L9.15084 5.17834ZM8.30417 3.53746C8.16823 2.8872 8.24916 2.37827 8.36674 2.09827C8.48671 1.81257 8.53391 1.95481 8.30747 1.99127L7.67159 -1.95787C6.13515 -1.71047 5.15545 -0.585741 4.67871 0.54958C4.19957 1.69059 4.11396 3.04119 4.3888 4.35593L8.30417 3.53746ZM15.6119 1.99169C15.3917 1.95653 15.4378 1.81592 15.5583 2.10132C15.6778 2.38466 15.7608 2.89956 15.6305 3.55873L19.5545 4.33466C19.8127 3.02884 19.7237 1.6842 19.2437 0.546522C18.7646 -0.589089 17.7838 -1.7122 16.2426 -1.95828L15.6119 1.99169ZM15.6366 3.52914C15.4943 4.19532 15.2015 4.69499 14.9311 4.97339C14.6398 5.2733 14.5736 5.14731 14.7745 5.17795L14.1713 9.13221C15.6822 9.36268 16.9649 8.62055 17.8004 7.76033C18.6568 6.87861 19.2688 5.67418 19.5484 4.36425L15.6366 3.52914ZM14.772 5.17758C15.0055 5.21289 14.9692 5.36685 14.8548 5.09117C14.7405 4.81555 14.6608 4.3047 14.7986 3.64542L10.8833 2.82695C10.6103 4.13267 10.6861 5.48136 11.1602 6.62398C11.6342 7.76654 12.6193 8.89745 14.1738 9.13259L14.772 5.17758ZM14.8013 3.63266C14.9343 2.97472 15.2211 2.47889 15.4884 2.20106C15.7786 1.89933 15.846 2.0259 15.6397 1.99592L16.2148 -1.96252C14.7096 -2.18123 13.4337 -1.43296 12.6054 -0.57179C11.7542 0.313275 11.1473 1.52156 10.8807 2.83972L14.8013 3.63266ZM2.83991 6.96093C2.72733 7.00932 2.80407 6.90534 3.14995 7.09985C3.48021 7.28558 3.87459 7.66241 4.16316 8.21461L7.70828 6.362C7.09761 5.19343 6.18199 4.21585 5.11067 3.61337C4.05496 3.01966 2.63852 2.69365 1.26035 3.28602L2.83991 6.96093ZM4.13339 8.15525C4.4076 8.72534 4.44543 9.20894 4.39957 9.48672C4.35536 9.75441 4.28619 9.66129 4.44064 9.59432L6.03198 13.2641C7.44093 12.6532 8.14332 11.3666 8.34613 10.1384C8.54727 8.9202 8.30756 7.60534 7.73805 6.42136L4.13339 8.15525ZM4.44064 9.59432C4.55953 9.54276 4.4931 9.64791 4.16196 9.45982C3.84541 9.28003 3.46113 8.90964 3.1817 8.35432L-0.391442 10.1523C0.206162 11.3399 1.11523 12.3295 2.1864 12.9379C3.24296 13.538 4.6586 13.8597 6.03198 13.2641L4.44064 9.59432ZM3.1817 8.35432C2.90515 7.80472 2.86564 7.32966 2.91024 7.0533C2.95519 6.77483 3.03008 6.87798 2.85002 6.95655L1.25024 3.2904C-0.151009 3.90185 -0.842133 5.19843 -1.03865 6.41591C-1.2355 7.63551 -0.991923 8.95891 -0.391442 10.1523L3.1817 8.35432ZM21.2333 6.95655C21.0532 6.87798 21.1281 6.77483 21.173 7.0533C21.2177 7.32966 21.1781 7.80472 20.9016 8.35432L24.4747 10.1523C25.0752 8.95891 25.3188 7.6355 25.1219 6.41591C24.9254 5.19843 24.2343 3.90185 22.833 3.2904L21.2333 6.95655ZM20.9016 8.35432C20.6222 8.90964 20.2379 9.28003 19.9213 9.45982C19.5902 9.64791 19.5238 9.54276 19.6426 9.59432L18.0513 13.2641C19.4247 13.8597 20.8403 13.538 21.8969 12.9379C22.9681 12.3295 23.8771 11.3399 24.4747 10.1523L20.9016 8.35432ZM19.6426 9.59432C19.7971 9.66129 19.7279 9.75441 19.6837 9.48672C19.6379 9.20895 19.6757 8.72534 19.9499 8.15525L16.3452 6.42136C15.7757 7.60533 15.536 8.9202 15.7372 10.1384C15.94 11.3666 16.6424 12.6532 18.0513 13.2641L19.6426 9.59432ZM19.9201 8.21461C20.2087 7.66241 20.6031 7.28558 20.9333 7.09985C21.2792 6.90534 21.356 7.00932 21.2434 6.96093L22.8229 3.28602C21.4448 2.69365 20.0283 3.01966 18.9726 3.61337C17.9013 4.21585 16.9857 5.19343 16.375 6.362L19.9201 8.21461ZM18.181 17.1761C18.1807 17.1687 18.1829 17.2009 18.1599 17.273C18.137 17.3445 18.0958 17.4344 18.0319 17.5307C17.892 17.7418 17.727 17.8629 17.6435 17.9007L19.2955 21.5436C20.1668 21.1486 20.8788 20.4758 21.3661 19.7405C21.851 19.0089 22.2218 18.0491 22.1774 17.0061L18.181 17.1761ZM17.6366 17.9039C17.4113 18.0071 17.0148 18.033 15.8903 17.6712C15.4574 17.5319 14.7353 17.2736 14.1514 17.1047C13.5117 16.9196 12.7435 16.7452 11.9195 16.7452V20.7452C12.2001 20.7452 12.5546 20.8068 13.0397 20.9471C13.5805 21.1036 13.9852 21.2602 14.6653 21.479C15.7666 21.8333 17.5406 22.3476 19.3025 21.5405L17.6366 17.9039ZM11.9195 16.7452C11.0851 16.7452 10.3082 16.9289 9.66712 17.1208C9.08974 17.2936 8.34824 17.5661 7.92755 17.705C6.79824 18.0777 6.4552 18.0244 6.28317 17.9374L4.4781 21.507C6.25997 22.408 8.08176 21.8663 9.1811 21.5035C9.87475 21.2746 10.2635 21.1176 10.814 20.9529C11.3008 20.8072 11.6493 20.7452 11.9195 20.7452V16.7452ZM6.26067 17.9262C6.15243 17.8732 5.96075 17.7148 5.8044 17.425C5.64732 17.1339 5.62102 16.8865 5.63444 16.775L1.66311 16.297C1.5322 17.3845 1.81675 18.4582 2.28414 19.3244C2.75226 20.192 3.49868 21.0272 4.5006 21.5182L6.26067 17.9262ZM5.63434 16.7759C5.64024 16.727 5.68407 16.5164 6.27466 16.0043C6.56122 15.7557 6.85905 15.5315 7.25543 15.2196C7.61804 14.9342 8.05294 14.5826 8.44639 14.178L5.57877 11.3893C5.38384 11.5897 5.12905 11.8029 4.78184 12.0761C4.46841 12.3227 4.0363 12.6508 3.65398 12.9823C2.90683 13.6303 1.85713 14.6909 1.66321 16.2961L5.63434 16.7759ZM8.4268 14.1978C8.93955 13.6851 9.38158 13.095 9.74584 12.5919C10.1416 12.0452 10.4402 11.6106 10.7721 11.1997C11.4674 10.3389 11.7816 10.2764 11.9195 10.2764V6.27635C9.82597 6.27635 8.46942 7.68473 7.66043 8.68626C7.2402 9.20651 6.82824 9.8009 6.5059 10.2461C6.15203 10.7349 5.86828 11.0995 5.59837 11.3694L8.4268 14.1978ZM11.9195 10.2764C12.0693 10.2764 12.4 10.3513 13.0916 11.1946C13.4173 11.5918 13.7239 12.0322 14.103 12.5628C14.4561 13.0571 14.8782 13.638 15.3516 14.1465L18.2792 11.4208C18.0032 11.1244 17.7162 10.7394 17.3577 10.2377C17.0253 9.77229 16.6179 9.18653 16.1845 8.6581C15.3579 7.65016 13.9901 6.27635 11.9195 6.27635V10.2764ZM15.336 14.1296C15.7242 14.5562 16.1575 14.9455 16.5219 15.2691C16.9129 15.6162 17.2284 15.8915 17.5117 16.1765C18.1013 16.7697 18.1755 17.048 18.181 17.1769L22.1773 17.0053C22.1052 15.3246 21.1136 14.1264 20.3488 13.3568C19.9549 12.9605 19.521 12.5828 19.1779 12.2781C18.8082 11.9498 18.5226 11.6882 18.2947 11.4377L15.336 14.1296Z" fill="#467B5F" mask="url(#path-1-inside-1_594_6118)"/>
</svg>
