<svg width="22" height="22" viewBox="0 0 22 22" fill="none" xmlns="http://www.w3.org/2000/svg">
<path d="M2.18896 17C2.18896 16.4477 1.74124 16 1.18896 16C0.636672 16 0.18896 16.4477 0.188965 17L2.18896 17ZM21.1888 16.9763C21.1757 16.4242 20.7175 15.9872 20.1654 16.0003C19.6132 16.0134 19.1762 16.4715 19.1893 17.0237L21.1888 16.9763ZM10.0584 15C10.0584 15.5523 10.5061 16 11.0584 16C11.6106 16 12.0584 15.5523 12.0584 15H10.0584ZM11.7655 0.292893C11.3749 -0.0976311 10.7418 -0.0976311 10.3513 0.292893L3.98729 6.65685C3.59677 7.04738 3.59677 7.68054 3.98729 8.07107C4.37782 8.46159 5.01098 8.46159 5.4015 8.07107L11.0584 2.41421L16.7152 8.07107C17.1057 8.46159 17.7389 8.46159 18.1294 8.07107C18.52 7.68054 18.52 7.04738 18.1294 6.65685L11.7655 0.292893ZM1.18896 17C0.188965 17 0.188965 17 0.188965 17.0001C0.188965 17.0001 0.188965 17.0002 0.188965 17.0002C0.188965 17.0004 0.188965 17.0006 0.188965 17.0008C0.188965 17.0014 0.188965 17.0021 0.188965 17.0031C0.188966 17.0051 0.188967 17.008 0.188968 17.0119C0.188972 17.0196 0.188978 17.031 0.188991 17.0458C0.189017 17.0754 0.189069 17.1187 0.189172 17.1738C0.189379 17.2838 0.189792 17.4409 0.190615 17.6294C0.192261 18.006 0.195553 18.5091 0.202151 19.0131C0.208722 19.515 0.218666 20.0257 0.233919 20.4142C0.241434 20.6056 0.250805 20.7831 0.263284 20.9193C0.269036 20.9821 0.278029 21.0665 0.293961 21.1477C0.300348 21.1802 0.317811 21.2666 0.357478 21.3644C0.375384 21.4085 0.422315 21.5181 0.517184 21.6331C0.604005 21.7385 0.860604 22 1.29367 22V20C1.72346 20 1.97684 20.2596 2.06049 20.3611C2.15219 20.4723 2.196 20.5761 2.21083 20.6127C2.24436 20.6953 2.25588 20.7592 2.25652 20.7625C2.26095 20.7851 2.25921 20.7835 2.25495 20.7369C2.24739 20.6544 2.23959 20.5194 2.23238 20.3358C2.21819 19.9743 2.2085 19.485 2.20198 18.9869C2.19549 18.4909 2.19223 17.994 2.1906 17.6206C2.18978 17.4341 2.18937 17.2787 2.18917 17.17C2.18907 17.1157 2.18902 17.073 2.18899 17.044C2.18898 17.0295 2.18897 17.0185 2.18897 17.011C2.18897 17.0073 2.18897 17.0045 2.18897 17.0027C2.18897 17.0018 2.18896 17.0011 2.18896 17.0006C2.18896 17.0004 2.18896 17.0002 2.18896 17.0001C2.18896 17.0001 2.18896 17 2.18896 17C2.18896 17 2.18896 17 1.18896 17ZM1.29367 22H20.053V20H1.29367V22ZM20.053 22C20.4578 22 20.7165 21.7731 20.8279 21.6452C20.9374 21.5194 20.9933 21.3943 21.0181 21.3337C21.0708 21.2048 21.0962 21.0785 21.1096 21.0036C21.1394 20.8365 21.1573 20.6342 21.1696 20.4377C21.1951 20.0329 21.2049 19.5095 21.2075 19.0052C21.2102 18.4964 21.2055 17.9895 21.2001 17.6109C21.1975 17.4213 21.1946 17.2632 21.1925 17.1523C21.1914 17.0968 21.1905 17.0531 21.1898 17.0232C21.1895 17.0082 21.1892 16.9966 21.189 16.9887C21.189 16.9848 21.1889 16.9818 21.1888 16.9797C21.1888 16.9786 21.1888 16.9778 21.1888 16.9773C21.1888 16.977 21.1888 16.9768 21.1888 16.9766C21.1888 16.9765 21.1888 16.9765 21.1888 16.9764C21.1888 16.9764 21.1888 16.9763 20.189 17C19.1893 17.0237 19.1893 17.0237 19.1893 17.0237C19.1893 17.0237 19.1893 17.0237 19.1893 17.0237C19.1893 17.0238 19.1893 17.024 19.1893 17.0242C19.1893 17.0246 19.1894 17.0252 19.1894 17.0261C19.1894 17.0279 19.1895 17.0306 19.1896 17.0342C19.1897 17.0415 19.19 17.0524 19.1903 17.0667C19.1909 17.0953 19.1918 17.1375 19.1929 17.1914C19.195 17.2993 19.1977 17.4537 19.2003 17.6391C19.2056 18.0105 19.2101 18.5036 19.2076 18.9948C19.205 19.4905 19.1953 19.9671 19.1736 20.3123C19.1624 20.4908 19.1498 20.601 19.1406 20.6526C19.1345 20.6871 19.1382 20.6468 19.167 20.5765C19.1798 20.5451 19.2232 20.4425 19.3195 20.3319C19.4177 20.2191 19.6626 20 20.053 20V22ZM12.0584 15V1H10.0584V15H12.0584Z" fill="#467B5F"/>
</svg>
