<svg width="541" height="147" viewBox="0 0 541 147" fill="none" xmlns="http://www.w3.org/2000/svg">
<path d="M47.0001 88.3333C44.0001 97 40.9445 105.333 37.8334 113.333C34.7223 121.333 32.1112 127.389 30.0001 131.5C28.0001 135.722 26.2223 138.611 24.6667 140.167C23.1112 141.722 21.5001 142.778 19.8334 143.333C18.2778 143.889 16.6667 144.111 15.0001 144C13.4445 143.889 11.8334 143.778 10.1667 143.667C0.833405 142.222 -2.05548 135.5 1.50007 123.5C3.8334 113.944 5.72229 106.167 7.16674 100.167C8.61118 94.0556 9.77785 89.0556 10.6667 85.1667C11.6667 81.1667 12.5001 77.8889 13.1667 75.3333C13.8334 72.6667 14.5556 70.0556 15.3334 67.5C16.1112 64.9445 17.0556 62.0556 18.1667 58.8333C19.389 55.6111 20.9445 51.3333 22.8334 46C18.6112 46.5556 14.8334 46.1111 11.5001 44.6667C6.61118 42.5556 4.61118 38 5.50007 31C5.94452 27.7778 7.66674 24.7778 10.6667 22C12.2223 20.5556 14.0556 19 16.1667 17.3333C20.5001 13.8889 29.1112 10.2222 42.0001 6.33334C55.3334 2.33334 66.7778 0.444449 76.3334 0.666668C78.889 0.22223 81.5001 0.555565 84.1667 1.66668C86.9445 2.66668 89.1667 4.05556 90.8334 5.83334C92.5001 7.61112 93.3334 9.55557 93.3334 11.6667C93.4445 13.7778 92.1112 15.6667 89.3334 17.3333C88.0001 18.2222 87.0556 19.7222 86.5001 21.8333C85.9445 23.8333 85.3334 26 84.6667 28.3333C84.0001 30.5556 83.0001 32.6111 81.6667 34.5C80.4445 36.3889 78.4445 37.5 75.6667 37.8333C74.2223 38.6111 72.1667 39.1667 69.5001 39.5C66.9445 39.8333 65.2223 40.1111 64.3334 40.3333C63.5556 40.4444 63.1112 40.7222 63.0001 41.1667C61.0001 47.0556 58.6112 54.2222 55.8334 62.6667C53.0556 71 50.1112 79.5556 47.0001 88.3333ZM24.5001 44.1667C24.2778 44.1667 24.1667 44.2222 24.1667 44.3333C24.1667 44.3333 24.2778 44.3333 24.5001 44.3333V44.1667Z" fill="#467B5F"/>
<path d="M153.159 59.5L153.826 59.6667C154.048 59.6667 154.159 59.7222 154.159 59.8333C157.048 58.7222 159.437 59.5556 161.326 62.3333C162.548 64.2222 163.492 67.1111 164.159 71C164.381 76.3333 163.826 83.7222 162.492 93.1667C159.937 112.278 158.548 123.667 158.326 127.333C158.548 131.222 156.159 133.889 151.159 135.333C146.826 136.667 142.492 136.611 138.159 135.167C133.603 133.611 131.714 131.222 132.492 128C131.603 129.667 130.714 130.833 129.826 131.5C128.937 132.278 127.159 133.278 124.492 134.5C121.937 135.833 118.27 136.889 113.492 137.667C108.714 138.556 103.937 138.778 99.1589 138.333C94.3811 138 89.9923 136.833 85.9923 134.833C82.1034 132.944 79.4923 129.944 78.1589 125.833C75.6034 117.833 75.9367 107.667 79.1589 95.3333C81.3811 87.2222 85.3811 80.0556 91.1589 73.8333C97.8256 66.7222 105.381 60.8333 113.826 56.1667C120.159 52.7222 126.27 50.6667 132.159 50C134.159 49.7778 135.881 49.8333 137.326 50.1667C138.881 50.5 140.492 50.8333 142.159 51.1667C143.937 51.5 145.603 52 147.159 52.6667C151.159 54.3333 153.159 56.6111 153.159 59.5ZM122.326 103.667C123.103 102.111 123.714 100.167 124.159 97.8333C124.714 95.5 125.437 92.9444 126.326 90.1667C117.326 93.8333 110.437 98.3333 105.659 103.667C100.437 109.556 100.77 113.611 106.659 115.833C111.77 117.167 115.492 116.333 117.826 113.333C118.826 112 119.714 110.333 120.492 108.333C121.27 106.333 122.214 104.278 123.326 102.167C122.992 102.722 122.659 103.222 122.326 103.667Z" fill="#467B5F"/>
<path d="M230.681 135C226.348 138.556 221.181 141.222 215.181 143C209.292 144.889 203.348 145.889 197.348 146C191.348 146.111 185.737 145.389 180.514 143.833C175.292 142.278 171.181 139.833 168.181 136.5C164.625 132.722 163.403 128.944 164.514 125.167C165.07 123.611 166.07 122.389 167.514 121.5C168.848 120.611 170.514 120.389 172.514 120.833C173.848 120.944 174.792 120.611 175.348 119.833C176.014 118.944 176.57 118 177.014 117C177.459 115.889 177.959 114.889 178.514 114C179.07 113 179.959 112.5 181.181 112.5C200.737 113.056 210.903 111.333 211.681 107.333C210.348 106.111 208.681 105.056 206.681 104.167C204.792 103.278 202.848 102.389 200.848 101.5C195.959 99.2778 192.681 96.8333 191.014 94.1667C188.903 93.0556 187.292 90.3889 186.181 86.1667C185.625 84.2778 185.348 82.3333 185.348 80.3333C185.348 78.3333 185.681 76.5 186.348 74.8333C186.014 70.5 188.681 65.7222 194.348 60.5C195.903 59.0556 197.848 57.5 200.181 55.8333C202.514 54.1667 206.014 52.5556 210.681 51C215.348 49.4445 219.959 48.3333 224.514 47.6667C229.181 46.8889 233.348 46.6111 237.014 46.8333C240.792 47.0556 243.459 47.9445 245.014 49.5C246.681 51.0556 247.959 53 248.848 55.3333C249.848 57.6667 250.181 59.9444 249.848 62.1667C248.959 67.1667 244.848 70.6111 237.514 72.5C228.292 73.8333 223.848 75.0556 224.181 76.1667C224.181 76.3889 223.792 76.6667 223.014 77C231.57 82.8889 237.514 88.6667 240.848 94.3333C245.403 102.111 246.07 110.778 242.848 120.333C243.403 123.444 240.625 127.333 234.514 132C233.07 133.111 231.792 134.111 230.681 135Z" fill="#467B5F"/>
<path d="M319.158 135C314.824 138.556 309.658 141.222 303.658 143C297.769 144.889 291.824 145.889 285.824 146C279.824 146.111 274.213 145.389 268.991 143.833C263.769 142.278 259.658 139.833 256.658 136.5C253.102 132.722 251.88 128.944 252.991 125.167C253.546 123.611 254.546 122.389 255.991 121.5C257.324 120.611 258.991 120.389 260.991 120.833C262.324 120.944 263.269 120.611 263.824 119.833C264.491 118.944 265.046 118 265.491 117C265.935 115.889 266.435 114.889 266.991 114C267.546 113 268.435 112.5 269.658 112.5C289.213 113.056 299.38 111.333 300.158 107.333C298.824 106.111 297.158 105.056 295.158 104.167C293.269 103.278 291.324 102.389 289.324 101.5C284.435 99.2778 281.158 96.8333 279.491 94.1667C277.38 93.0556 275.769 90.3889 274.658 86.1667C274.102 84.2778 273.824 82.3333 273.824 80.3333C273.824 78.3333 274.158 76.5 274.824 74.8333C274.491 70.5 277.158 65.7222 282.824 60.5C284.38 59.0556 286.324 57.5 288.658 55.8333C290.991 54.1667 294.491 52.5556 299.158 51C303.824 49.4445 308.435 48.3333 312.991 47.6667C317.658 46.8889 321.824 46.6111 325.491 46.8333C329.269 47.0556 331.935 47.9445 333.491 49.5C335.158 51.0556 336.435 53 337.324 55.3333C338.324 57.6667 338.658 59.9444 338.324 62.1667C337.435 67.1667 333.324 70.6111 325.991 72.5C316.769 73.8333 312.324 75.0556 312.658 76.1667C312.658 76.3889 312.269 76.6667 311.491 77C320.046 82.8889 325.991 88.6667 329.324 94.3333C333.88 102.111 334.546 110.778 331.324 120.333C331.88 123.444 329.102 127.333 322.991 132C321.546 133.111 320.269 134.111 319.158 135Z" fill="#467B5F"/>
<path d="M405.467 106.333C403.356 107.333 401.301 108.111 399.301 108.667C397.301 109.222 394.967 109.778 392.301 110.333C385.301 111.778 380.245 112.611 377.134 112.833C377.467 113.944 379.134 115.278 382.134 116.833C384.134 117.167 386.301 116.889 388.634 116C391.079 115 393.579 114.111 396.134 113.333C398.801 112.444 401.356 111.944 403.801 111.833C406.356 111.722 408.745 112.667 410.967 114.667C411.856 116.667 412.579 117.833 413.134 118.167C413.69 118.5 414.19 118.667 414.634 118.667C415.079 118.667 415.579 118.833 416.134 119.167C416.69 119.5 417.467 120.778 418.467 123C419.579 125.222 419.301 127.333 417.634 129.333C416.079 131.333 413.634 133.056 410.301 134.5C406.967 135.944 403.079 137.111 398.634 138C394.19 138.889 389.745 139.5 385.301 139.833C375.301 140.611 367.69 139.833 362.467 137.5C354.912 134.944 350.023 129.889 347.801 122.333C344.912 112.333 346.523 100.667 352.634 87.3333C355.412 81.1111 359.801 74.4444 365.801 67.3333C371.023 61.1111 376.856 56.6111 383.301 53.8333C390.745 50.6111 398.523 49.1111 406.634 49.3333C415.301 49.5556 421.301 53.3333 424.634 60.6667C426.301 64.5556 426.634 70 425.634 77C423.856 86.1111 421.523 92.5556 418.634 96.3333C415.745 100 411.356 103.333 405.467 106.333ZM395.801 80C389.912 78.7778 385.301 82.1111 381.967 90C380.968 92.1111 380.19 94.3333 379.634 96.6667C383.412 97.1111 387.412 95 391.634 90.3333C393.19 88.4444 394.356 86.5556 395.134 84.6667C395.912 82.6667 396.134 81.1111 395.801 80Z" fill="#467B5F"/>
<path d="M459.704 58.8333C467.149 55.8333 472.149 55.7778 474.704 58.6667C476.038 60.2222 476.704 62.3889 476.704 65.1667V66C480.816 61.2222 487.982 57.2222 498.204 54C508.982 50.6667 517.871 49.7222 524.871 51.1667C533.982 53.0556 539.093 59 540.204 69C541.093 77.4445 539.149 88.1667 534.371 101.167C532.816 104.5 531.593 107.222 530.704 109.333C529.927 111.333 529.204 113.167 528.538 114.833C527.093 117.944 524.816 121.667 521.704 126C519.927 129.333 517.149 131.889 513.371 133.667C509.704 135.444 506.038 136.444 502.371 136.667C498.816 137 495.871 136.444 493.538 135C491.204 133.667 490.538 131.5 491.538 128.5C494.093 121.611 496.204 115.333 497.871 109.667C499.538 104 501.26 99.1667 503.038 95.1667C504.704 89.5 504.927 85.9445 503.704 84.5C502.704 83.3889 500.982 83.5556 498.538 85C496.427 86.3333 494.927 87.8889 494.038 89.6667C492.038 91.1111 488.26 96.8889 482.704 107C481.149 109.778 479.593 112.556 478.038 115.333C476.593 118 475.204 120.5 473.871 122.833C472.649 125.167 471.538 127.111 470.538 128.667C469.649 130.222 468.816 131.222 468.038 131.667C467.371 132.222 466.76 132.556 466.204 132.667C465.76 132.889 465.371 133.111 465.038 133.333C464.704 133.556 464.427 134.278 464.204 135.5C463.76 138.056 461.093 139.944 456.204 141.167C448.316 143.167 441.204 142.833 434.871 140.167C432.76 139.278 431.093 138.056 429.871 136.5C427.316 131.389 431.704 114 443.038 84.3333C447.038 73.8889 449.649 67.6667 450.871 65.6667C453.649 61.4445 455.427 59.0556 456.204 58.5C457.093 57.9444 458.26 58.0556 459.704 58.8333Z" fill="#467B5F"/>
</svg>
