<svg width="25" height="24" viewBox="0 0 25 24" fill="none" xmlns="http://www.w3.org/2000/svg">
<mask id="path-1-inside-1_594_6117" fill="white">
<path d="M9.46596 7.71429C8.99257 7.71429 8.60882 8.09804 8.60882 8.57143V15.4286C8.60882 15.902 8.99257 16.2857 9.46596 16.2857H16.3231C16.7965 16.2857 17.1802 15.902 17.1802 15.4286V8.57143C17.1802 8.09804 16.7965 7.71429 16.3231 7.71429H9.46596ZM15.466 13.7143C15.466 14.1877 15.0822 14.5714 14.6088 14.5714H11.1802C10.7069 14.5714 10.3231 14.1877 10.3231 13.7143V10.2857C10.3231 9.81233 10.7069 9.42857 11.1802 9.42857H14.6088C15.0822 9.42857 15.466 9.81233 15.466 10.2857V13.7143Z"/>
<path d="M24.0374 9.42857C24.5108 9.42857 24.8945 9.04482 24.8945 8.57143C24.8945 8.09804 24.5108 7.71429 24.0374 7.71429H22.3231C21.8497 7.71429 21.466 7.33053 21.466 6.85714V5.14286C21.466 4.6882 21.2853 4.25217 20.9639 3.93067C20.6424 3.60918 20.2063 3.42857 19.7517 3.42857H18.0374C17.564 3.42857 17.1802 3.04482 17.1802 2.57143V0.857143C17.1802 0.383756 16.7965 0 16.3231 0C15.8497 0 15.466 0.383756 15.466 0.857143V2.57143C15.466 3.04482 15.0822 3.42857 14.6088 3.42857H11.1802C10.7069 3.42857 10.3231 3.04482 10.3231 2.57143V0.857143C10.3231 0.383756 9.93935 0 9.46596 0C8.99257 0 8.60882 0.383756 8.60882 0.857143V2.57143C8.60882 3.04482 8.22506 3.42857 7.75167 3.42857H6.03739C5.58273 3.42857 5.1467 3.60918 4.82521 3.93067C4.50371 4.25217 4.3231 4.6882 4.3231 5.14286V6.85714C4.3231 7.33053 3.93935 7.71429 3.46596 7.71429H1.75167C1.27829 7.71429 0.894531 8.09804 0.894531 8.57143C0.894531 9.04482 1.27829 9.42857 1.75167 9.42857H3.46596C3.93935 9.42857 4.3231 9.81233 4.3231 10.2857V13.7143C4.3231 14.1877 3.93935 14.5714 3.46596 14.5714H1.75167C1.27829 14.5714 0.894531 14.9552 0.894531 15.4286C0.894531 15.902 1.27829 16.2857 1.75167 16.2857H3.46596C3.93935 16.2857 4.3231 16.6695 4.3231 17.1429V18.8571C4.3231 19.3118 4.50371 19.7478 4.82521 20.0693C5.1467 20.3908 5.58273 20.5714 6.03739 20.5714H7.75167C8.22506 20.5714 8.60882 20.9552 8.60882 21.4286V23.1429C8.60882 23.6162 8.99257 24 9.46596 24C9.93935 24 10.3231 23.6162 10.3231 23.1429V21.4286C10.3231 20.9552 10.7069 20.5714 11.1802 20.5714H14.6088C15.0822 20.5714 15.466 20.9552 15.466 21.4286V23.1429C15.466 23.6162 15.8497 24 16.3231 24C16.7965 24 17.1802 23.6162 17.1802 23.1429V21.4286C17.1802 20.9552 17.564 20.5714 18.0374 20.5714H19.7517C20.2063 20.5714 20.6424 20.3908 20.9639 20.0693C21.2853 19.7478 21.466 19.3118 21.466 18.8571V17.1429C21.466 16.6695 21.8497 16.2857 22.3231 16.2857H24.0374C24.5108 16.2857 24.8945 15.902 24.8945 15.4286C24.8945 14.9552 24.5108 14.5714 24.0374 14.5714H22.3231C21.8497 14.5714 21.466 14.1877 21.466 13.7143V10.2857C21.466 9.81233 21.8497 9.42857 22.3231 9.42857H24.0374ZM19.7517 18C19.7517 18.4734 19.3679 18.8571 18.8945 18.8571H6.89453C6.42114 18.8571 6.03739 18.4734 6.03739 18V6C6.03739 5.52661 6.42114 5.14286 6.89453 5.14286H18.8945C19.3679 5.14286 19.7517 5.52661 19.7517 6V18Z"/>
</mask>
<path d="M9.46596 7.71429C8.99257 7.71429 8.60882 8.09804 8.60882 8.57143V15.4286C8.60882 15.902 8.99257 16.2857 9.46596 16.2857H16.3231C16.7965 16.2857 17.1802 15.902 17.1802 15.4286V8.57143C17.1802 8.09804 16.7965 7.71429 16.3231 7.71429H9.46596ZM15.466 13.7143C15.466 14.1877 15.0822 14.5714 14.6088 14.5714H11.1802C10.7069 14.5714 10.3231 14.1877 10.3231 13.7143V10.2857C10.3231 9.81233 10.7069 9.42857 11.1802 9.42857H14.6088C15.0822 9.42857 15.466 9.81233 15.466 10.2857V13.7143Z" fill="white"/>
<path d="M24.0374 9.42857C24.5108 9.42857 24.8945 9.04482 24.8945 8.57143C24.8945 8.09804 24.5108 7.71429 24.0374 7.71429H22.3231C21.8497 7.71429 21.466 7.33053 21.466 6.85714V5.14286C21.466 4.6882 21.2853 4.25217 20.9639 3.93067C20.6424 3.60918 20.2063 3.42857 19.7517 3.42857H18.0374C17.564 3.42857 17.1802 3.04482 17.1802 2.57143V0.857143C17.1802 0.383756 16.7965 0 16.3231 0C15.8497 0 15.466 0.383756 15.466 0.857143V2.57143C15.466 3.04482 15.0822 3.42857 14.6088 3.42857H11.1802C10.7069 3.42857 10.3231 3.04482 10.3231 2.57143V0.857143C10.3231 0.383756 9.93935 0 9.46596 0C8.99257 0 8.60882 0.383756 8.60882 0.857143V2.57143C8.60882 3.04482 8.22506 3.42857 7.75167 3.42857H6.03739C5.58273 3.42857 5.1467 3.60918 4.82521 3.93067C4.50371 4.25217 4.3231 4.6882 4.3231 5.14286V6.85714C4.3231 7.33053 3.93935 7.71429 3.46596 7.71429H1.75167C1.27829 7.71429 0.894531 8.09804 0.894531 8.57143C0.894531 9.04482 1.27829 9.42857 1.75167 9.42857H3.46596C3.93935 9.42857 4.3231 9.81233 4.3231 10.2857V13.7143C4.3231 14.1877 3.93935 14.5714 3.46596 14.5714H1.75167C1.27829 14.5714 0.894531 14.9552 0.894531 15.4286C0.894531 15.902 1.27829 16.2857 1.75167 16.2857H3.46596C3.93935 16.2857 4.3231 16.6695 4.3231 17.1429V18.8571C4.3231 19.3118 4.50371 19.7478 4.82521 20.0693C5.1467 20.3908 5.58273 20.5714 6.03739 20.5714H7.75167C8.22506 20.5714 8.60882 20.9552 8.60882 21.4286V23.1429C8.60882 23.6162 8.99257 24 9.46596 24C9.93935 24 10.3231 23.6162 10.3231 23.1429V21.4286C10.3231 20.9552 10.7069 20.5714 11.1802 20.5714H14.6088C15.0822 20.5714 15.466 20.9552 15.466 21.4286V23.1429C15.466 23.6162 15.8497 24 16.3231 24C16.7965 24 17.1802 23.6162 17.1802 23.1429V21.4286C17.1802 20.9552 17.564 20.5714 18.0374 20.5714H19.7517C20.2063 20.5714 20.6424 20.3908 20.9639 20.0693C21.2853 19.7478 21.466 19.3118 21.466 18.8571V17.1429C21.466 16.6695 21.8497 16.2857 22.3231 16.2857H24.0374C24.5108 16.2857 24.8945 15.902 24.8945 15.4286C24.8945 14.9552 24.5108 14.5714 24.0374 14.5714H22.3231C21.8497 14.5714 21.466 14.1877 21.466 13.7143V10.2857C21.466 9.81233 21.8497 9.42857 22.3231 9.42857H24.0374ZM19.7517 18C19.7517 18.4734 19.3679 18.8571 18.8945 18.8571H6.89453C6.42114 18.8571 6.03739 18.4734 6.03739 18V6C6.03739 5.52661 6.42114 5.14286 6.89453 5.14286H18.8945C19.3679 5.14286 19.7517 5.52661 19.7517 6V18Z" fill="white"/>
<path d="M19.7517 3.42857V0.428572V3.42857ZM6.03739 3.42857L6.03739 0.428572L6.03739 3.42857ZM4.3231 5.14286H1.3231H4.3231ZM4.3231 18.8571L1.3231 18.8571L4.3231 18.8571ZM5.60882 8.57143V15.4286H11.6088V8.57143H5.60882ZM9.46596 19.2857H16.3231V13.2857H9.46596V19.2857ZM20.1802 15.4286V8.57143H14.1802V15.4286H20.1802ZM16.3231 4.71429H9.46596V10.7143H16.3231V4.71429ZM14.6088 11.5714H11.1802V17.5714H14.6088V11.5714ZM13.3231 13.7143V10.2857H7.3231V13.7143H13.3231ZM11.1802 12.4286H14.6088V6.42857H11.1802V12.4286ZM12.466 10.2857V13.7143H18.466V10.2857H12.466ZM14.6088 12.4286C13.4254 12.4286 12.466 11.4692 12.466 10.2857H18.466C18.466 8.15547 16.7391 6.42857 14.6088 6.42857V12.4286ZM13.3231 10.2857C13.3231 11.4692 12.3637 12.4286 11.1802 12.4286V6.42857C9.05 6.42857 7.3231 8.15547 7.3231 10.2857H13.3231ZM11.1802 11.5714C12.3637 11.5714 13.3231 12.5308 13.3231 13.7143H7.3231C7.3231 15.8445 9.05 17.5714 11.1802 17.5714V11.5714ZM14.6088 17.5714C16.7391 17.5714 18.466 15.8445 18.466 13.7143H12.466C12.466 12.5308 13.4254 11.5714 14.6088 11.5714V17.5714ZM20.1802 8.57143C20.1802 6.44119 18.4533 4.71429 16.3231 4.71429V10.7143C15.1396 10.7143 14.1802 9.75489 14.1802 8.57143H20.1802ZM16.3231 19.2857C18.4533 19.2857 20.1802 17.5588 20.1802 15.4286H14.1802C14.1802 14.2451 15.1396 13.2857 16.3231 13.2857V19.2857ZM5.60882 15.4286C5.60882 17.5588 7.33572 19.2857 9.46596 19.2857V13.2857C10.6494 13.2857 11.6088 14.2451 11.6088 15.4286H5.60882ZM11.6088 8.57143C11.6088 9.7549 10.6494 10.7143 9.46596 10.7143V4.71429C7.33572 4.71429 5.60882 6.44119 5.60882 8.57143H11.6088ZM24.0374 4.71429H22.3231V10.7143H24.0374V4.71429ZM24.466 6.85714V5.14286H18.466V6.85714H24.466ZM24.466 5.14286C24.466 3.89255 23.9693 2.69346 23.0852 1.80935L18.8425 6.05199C18.6014 5.81087 18.466 5.48385 18.466 5.14286H24.466ZM23.0852 1.80935C22.2011 0.925254 21.002 0.428572 19.7517 0.428572L19.7517 6.42857C19.4107 6.42857 19.0837 6.29311 18.8425 6.05199L23.0852 1.80935ZM19.7517 0.428572H18.0374V6.42857H19.7517V0.428572ZM20.1802 2.57143V0.857143H14.1802V2.57143H20.1802ZM12.466 0.857143V2.57143H18.466V0.857143H12.466ZM14.6088 0.428572H11.1802V6.42857H14.6088V0.428572ZM13.3231 2.57143V0.857143H7.3231V2.57143H13.3231ZM5.60882 0.857143V2.57143H11.6088V0.857143H5.60882ZM7.75167 0.428572H6.03739V6.42857H7.75167V0.428572ZM6.03739 0.428572C4.78708 0.428572 3.58799 0.925254 2.70389 1.80935L6.94653 6.05199C6.70541 6.29311 6.37838 6.42857 6.03739 6.42857L6.03739 0.428572ZM2.70389 1.80935C1.81979 2.69345 1.3231 3.89255 1.3231 5.14286L7.3231 5.14286C7.3231 5.48385 7.18764 5.81088 6.94653 6.05199L2.70389 1.80935ZM1.3231 5.14286V6.85714H7.3231V5.14286H1.3231ZM3.46596 4.71429H1.75167V10.7143H3.46596V4.71429ZM1.75167 12.4286H3.46596V6.42857H1.75167V12.4286ZM1.3231 10.2857V13.7143H7.3231V10.2857H1.3231ZM3.46596 11.5714H1.75167V17.5714H3.46596V11.5714ZM1.75167 19.2857H3.46596V13.2857H1.75167V19.2857ZM1.3231 17.1429V18.8571H7.3231V17.1429H1.3231ZM1.3231 18.8571C1.3231 20.1074 1.81979 21.3065 2.70389 22.1906L6.94653 17.948C7.18764 18.1891 7.3231 18.5162 7.3231 18.8571L1.3231 18.8571ZM2.70389 22.1906C3.58799 23.0747 4.78708 23.5714 6.03739 23.5714V17.5714C6.37838 17.5714 6.70541 17.7069 6.94653 17.948L2.70389 22.1906ZM6.03739 23.5714H7.75167V17.5714H6.03739V23.5714ZM5.60882 21.4286V23.1429H11.6088V21.4286H5.60882ZM13.3231 23.1429V21.4286H7.3231V23.1429H13.3231ZM11.1802 23.5714H14.6088V17.5714H11.1802V23.5714ZM12.466 21.4286V23.1429H18.466V21.4286H12.466ZM20.1802 23.1429V21.4286H14.1802V23.1429H20.1802ZM18.0374 23.5714H19.7517V17.5714H18.0374V23.5714ZM19.7517 23.5714C21.002 23.5714 22.2011 23.0747 23.0852 22.1906L18.8425 17.948C19.0837 17.7069 19.4107 17.5714 19.7517 17.5714V23.5714ZM23.0852 22.1906C23.9693 21.3065 24.466 20.1074 24.466 18.8571H18.466C18.466 18.5162 18.6014 18.1891 18.8425 17.948L23.0852 22.1906ZM24.466 18.8571V17.1429H18.466V18.8571H24.466ZM22.3231 19.2857H24.0374V13.2857H22.3231V19.2857ZM24.0374 11.5714H22.3231V17.5714H24.0374V11.5714ZM24.466 13.7143V10.2857H18.466V13.7143H24.466ZM22.3231 12.4286H24.0374V6.42857H22.3231V12.4286ZM18.8945 15.8571H6.89453V21.8571H18.8945V15.8571ZM9.03739 18V6H3.03739V18H9.03739ZM6.89453 8.14286H18.8945V2.14286H6.89453V8.14286ZM16.7517 6V18H22.7517V6H16.7517ZM9.03739 6C9.03739 7.18347 8.078 8.14286 6.89453 8.14286V2.14286C4.76429 2.14286 3.03739 3.86976 3.03739 6H9.03739ZM6.89453 15.8571C8.078 15.8571 9.03739 16.8165 9.03739 18H3.03739C3.03739 20.1302 4.76429 21.8571 6.89453 21.8571V15.8571ZM18.8945 21.8571C21.0248 21.8571 22.7517 20.1302 22.7517 18H16.7517C16.7517 16.8165 17.7111 15.8571 18.8945 15.8571V21.8571ZM24.466 10.2857C24.466 11.4692 23.5066 12.4286 22.3231 12.4286V6.42857C20.1929 6.42857 18.466 8.15546 18.466 10.2857H24.466ZM22.3231 11.5714C23.5066 11.5714 24.466 12.5308 24.466 13.7143H18.466C18.466 15.8445 20.1929 17.5714 22.3231 17.5714V11.5714ZM27.8945 15.4286C27.8945 13.2983 26.1676 11.5714 24.0374 11.5714V17.5714C22.8539 17.5714 21.8945 16.612 21.8945 15.4286H27.8945ZM24.0374 19.2857C26.1676 19.2857 27.8945 17.5588 27.8945 15.4286H21.8945C21.8945 14.2451 22.8539 13.2857 24.0374 13.2857V19.2857ZM24.466 17.1429C24.466 18.3263 23.5066 19.2857 22.3231 19.2857V13.2857C20.1929 13.2857 18.466 15.0126 18.466 17.1429H24.466ZM20.1802 21.4286C20.1802 22.612 19.2209 23.5714 18.0374 23.5714V17.5714C15.9071 17.5714 14.1802 19.2983 14.1802 21.4286H20.1802ZM16.3231 27C18.4533 27 20.1802 25.2731 20.1802 23.1429H14.1802C14.1802 21.9594 15.1396 21 16.3231 21V27ZM12.466 23.1429C12.466 25.2731 14.1929 27 16.3231 27V21C17.5066 21 18.466 21.9594 18.466 23.1429H12.466ZM14.6088 23.5714C13.4253 23.5714 12.466 22.612 12.466 21.4286H18.466C18.466 19.2983 16.7391 17.5714 14.6088 17.5714V23.5714ZM7.75167 23.5714C6.5682 23.5714 5.60882 22.612 5.60882 21.4286H11.6088C11.6088 19.2983 9.88193 17.5714 7.75167 17.5714V23.5714ZM1.75167 11.5714C-0.378569 11.5714 -2.10547 13.2983 -2.10547 15.4286H3.89453C3.89453 16.612 2.93514 17.5714 1.75167 17.5714V11.5714ZM1.3231 13.7143C1.3231 12.5308 2.2825 11.5714 3.46596 11.5714V17.5714C5.5962 17.5714 7.3231 15.8445 7.3231 13.7143H1.3231ZM3.46596 12.4286C2.2825 12.4286 1.3231 11.4692 1.3231 10.2857H7.3231C7.3231 8.15547 5.5962 6.42857 3.46596 6.42857V12.4286ZM-2.10547 8.57143C-2.10547 10.7017 -0.378565 12.4286 1.75167 12.4286V6.42857C2.93514 6.42857 3.89453 7.38796 3.89453 8.57143H-2.10547ZM1.75167 4.71429C-0.378567 4.71429 -2.10547 6.44119 -2.10547 8.57143H3.89453C3.89453 9.7549 2.93514 10.7143 1.75167 10.7143V4.71429ZM1.3231 6.85714C1.3231 5.67367 2.28249 4.71429 3.46596 4.71429V10.7143C5.5962 10.7143 7.3231 8.98739 7.3231 6.85714H1.3231ZM11.1802 0.428572C12.3637 0.428572 13.3231 1.38796 13.3231 2.57143H7.3231C7.3231 4.70167 9.05 6.42857 11.1802 6.42857V0.428572ZM12.466 2.57143C12.466 1.38796 13.4253 0.428572 14.6088 0.428572V6.42857C16.7391 6.42857 18.466 4.70167 18.466 2.57143H12.466ZM13.3231 21.4286C13.3231 22.612 12.3637 23.5714 11.1802 23.5714V17.5714C9.04999 17.5714 7.3231 19.2983 7.3231 21.4286H13.3231ZM16.3231 -3C14.1929 -3 12.466 -1.2731 12.466 0.857143H18.466C18.466 2.04061 17.5066 3 16.3231 3V-3ZM9.46596 27C11.5962 27 13.3231 25.2731 13.3231 23.1429H7.3231C7.3231 21.9594 8.2825 21 9.46596 21V27ZM20.1802 0.857143C20.1802 -1.2731 18.4533 -3 16.3231 -3V3C15.1396 3 14.1802 2.04061 14.1802 0.857143H20.1802ZM5.60882 2.57143C5.60882 1.38796 6.56821 0.428572 7.75167 0.428572V6.42857C9.88192 6.42857 11.6088 4.70167 11.6088 2.57143H5.60882ZM22.3231 4.71429C23.5066 4.71429 24.466 5.67367 24.466 6.85714H18.466C18.466 8.9874 20.1929 10.7143 22.3231 10.7143V4.71429ZM5.60882 23.1429C5.60882 25.2731 7.33573 27 9.46596 27V21C10.6494 21 11.6088 21.9594 11.6088 23.1429H5.60882ZM18.0374 0.428572C19.2209 0.428572 20.1802 1.38796 20.1802 2.57143H14.1802C14.1802 4.70167 15.9071 6.42857 18.0374 6.42857V0.428572ZM9.46596 -3C7.33572 -3 5.60882 -1.2731 5.60882 0.857143H11.6088C11.6088 2.04061 10.6494 3 9.46596 3V-3ZM3.46596 19.2857C2.28249 19.2857 1.3231 18.3263 1.3231 17.1429H7.3231C7.3231 15.0126 5.5962 13.2857 3.46596 13.2857V19.2857ZM27.8945 8.57143C27.8945 6.44119 26.1676 4.71429 24.0374 4.71429V10.7143C22.8539 10.7143 21.8945 9.75489 21.8945 8.57143H27.8945ZM13.3231 0.857143C13.3231 -1.2731 11.5962 -3 9.46596 -3V3C8.28249 3 7.3231 2.04061 7.3231 0.857143H13.3231ZM-2.10547 15.4286C-2.10547 17.5588 -0.378565 19.2857 1.75167 19.2857V13.2857C2.93514 13.2857 3.89453 14.2451 3.89453 15.4286H-2.10547ZM18.8945 8.14286C17.7111 8.14286 16.7517 7.18347 16.7517 6H22.7517C22.7517 3.86976 21.0248 2.14286 18.8945 2.14286V8.14286ZM21.8945 8.57143C21.8945 7.38797 22.8539 6.42857 24.0374 6.42857V12.4286C26.1676 12.4286 27.8945 10.7017 27.8945 8.57143H21.8945Z" fill="white" mask="url(#path-1-inside-1_594_6117)"/>
</svg>
