<svg width="28" height="28" viewBox="0 0 28 28" fill="none" xmlns="http://www.w3.org/2000/svg">
<path d="M28 4.62609C28 3.4087 27.5333 2.33333 26.6 1.4C25.6667 0.466667 24.5913 0 23.3739 0H4.62609C3.4087 0 2.33333 0.466667 1.4 1.4C0.466667 2.33333 0 3.4087 0 4.62609V23.3739C0 24.5913 0.466667 25.6667 1.4 26.6C2.33333 27.5333 3.4087 28 4.62609 28H14V17.4087H10.5913V12.7826H14V10.9565C14 9.37391 14.5174 7.98406 15.5522 6.78696C16.587 5.58985 17.8145 4.9913 19.2348 4.9913H23.0087V9.61739H19.2348C19.0319 9.61739 18.8391 9.73913 18.6565 9.98261C18.4739 10.2261 18.3826 10.5304 18.3826 10.8957V12.7826H23.0087V17.4087H18.3826V28H23.3739C24.5913 28 25.6667 27.5333 26.6 26.6C27.5333 25.6667 28 24.5913 28 23.3739V4.62609Z" fill="white"/>
</svg>
