<svg width="20" height="14" viewBox="0 0 20 14" fill="none" xmlns="http://www.w3.org/2000/svg">
<path d="M1 12.5C0.447716 12.5 0 12.0523 0 11.5C0 10.9477 0.447715 10.5 1 10.5L19 10.5C19.5523 10.5 20 10.9477 20 11.5C20 12.0523 19.5523 12.5 19 12.5L1 12.5Z" fill="white"/>
<path d="M1 3.5C0.447716 3.5 0 3.05228 0 2.5C0 1.94772 0.447715 1.5 1 1.5L19 1.5C19.5523 1.5 20 1.94772 20 2.5C20 3.05228 19.5523 3.5 19 3.5L1 3.5Z" fill="white"/>
<path d="M15 9.5C16.1046 9.5 17 10.3954 17 11.5C17 12.6046 16.1046 13.5 15 13.5C13.8954 13.5 13 12.6046 13 11.5C13 10.3954 13.8954 9.5 15 9.5Z" fill="white"/>
<path d="M8 0.5C9.10457 0.5 10 1.39543 10 2.5C10 3.60457 9.10457 4.5 8 4.5C6.89543 4.5 6 3.60457 6 2.5C6 1.39543 6.89543 0.5 8 0.5Z" fill="white"/>
</svg>
