<svg width="28" height="28" viewBox="0 0 28 28" fill="none" xmlns="http://www.w3.org/2000/svg">
<path d="M18.48 14C18.48 14.8861 18.2173 15.7522 17.725 16.489C17.2327 17.2257 16.533 17.7999 15.7144 18.139C14.8958 18.4781 13.995 18.5668 13.126 18.3939C12.257 18.2211 11.4587 17.7944 10.8322 17.1678C10.2056 16.5413 9.77894 15.743 9.60608 14.874C9.43322 14.005 9.52194 13.1042 9.86102 12.2856C10.2001 11.467 10.7743 10.7673 11.511 10.275C12.2478 9.78275 13.1139 9.52 14 9.52C15.187 9.52369 16.3244 9.99688 17.1638 10.8362C18.0031 11.6756 18.4763 12.813 18.48 14ZM28 7.84V20.16C28 22.2393 27.174 24.2334 25.7037 25.7037C24.2334 27.174 22.2393 28 20.16 28H7.84C5.7607 28 3.76657 27.174 2.29628 25.7037C0.825998 24.2334 0 22.2393 0 20.16V7.84C0 5.7607 0.825998 3.76657 2.29628 2.29628C3.76657 0.825998 5.7607 0 7.84 0H20.16C22.2393 0 24.2334 0.825998 25.7037 2.29628C27.174 3.76657 28 5.7607 28 7.84ZM20.72 14C20.72 12.6709 20.3259 11.3717 19.5875 10.2666C18.8491 9.16147 17.7996 8.30015 16.5716 7.79153C15.3437 7.28291 13.9925 7.14983 12.689 7.40912C11.3854 7.66842 10.1881 8.30843 9.24824 9.24824C8.30843 10.1881 7.66842 11.3854 7.40912 12.689C7.14983 13.9925 7.28291 15.3437 7.79153 16.5716C8.30015 17.7996 9.16147 18.8491 10.2666 19.5875C11.3717 20.3259 12.6709 20.72 14 20.72C15.7823 20.72 17.4915 20.012 18.7518 18.7518C20.012 17.4915 20.72 15.7823 20.72 14ZM22.96 6.72C22.96 6.38773 22.8615 6.06292 22.6769 5.78664C22.4923 5.51037 22.2299 5.29504 21.9229 5.16788C21.6159 5.04073 21.2781 5.00746 20.9522 5.07228C20.6264 5.1371 20.327 5.29711 20.0921 5.53206C19.8571 5.76701 19.6971 6.06636 19.6323 6.39225C19.5675 6.71814 19.6007 7.05593 19.7279 7.36291C19.855 7.66989 20.0704 7.93227 20.3466 8.11687C20.6229 8.30147 20.9477 8.4 21.28 8.4C21.7256 8.4 22.1529 8.223 22.4679 7.90794C22.783 7.59288 22.96 7.16556 22.96 6.72Z" fill="white"/>
</svg>
