<svg width="34" height="28" viewBox="0 0 34 28" fill="none" xmlns="http://www.w3.org/2000/svg">
<path d="M34 3.29412C32.7486 3.87059 31.3996 4.24941 30.0019 4.43059C31.4321 3.55765 32.5373 2.17412 33.0574 0.510588C31.7084 1.33412 30.2132 1.91059 28.6367 2.24C27.3528 0.82353 25.5488 0 23.501 0C19.6816 0 16.5612 3.16235 16.5612 7.06588C16.5612 7.62588 16.6262 8.16941 16.74 8.68C10.9541 8.38353 5.8021 5.56706 2.37285 1.30118C1.77151 2.33882 1.43021 3.55765 1.43021 4.84235C1.43021 7.29647 2.64914 9.47059 4.53442 10.7059C3.3805 10.7059 2.30784 10.3765 1.3652 9.88235V9.93176C1.3652 13.3576 3.77056 16.2235 6.95602 16.8659C5.9333 17.1495 4.85962 17.189 3.81931 16.9812C4.26074 18.3853 5.12525 19.6138 6.29133 20.4942C7.4574 21.3746 8.86641 21.8626 10.3203 21.8894C7.8558 23.8666 4.80095 24.9353 1.65774 24.92C1.10516 24.92 0.552581 24.8871 0 24.8212C3.08795 26.8306 6.76099 28 10.6941 28C23.501 28 30.5382 17.2282 30.5382 7.88941C30.5382 7.57647 30.5382 7.28 30.522 6.96706C31.8872 5.97882 33.0574 4.72706 34 3.29412V3.29412Z" fill="white"/>
</svg>
