<svg width="90" height="20" viewBox="0 0 90 20" fill="none" xmlns="http://www.w3.org/2000/svg">
<path d="M0 20H20.2685V2.80663e-08H0V20ZM16.3673 8.07563H12.0845V3.84951H16.3673V8.07563ZM3.9004 3.84951H8.18564V11.9244H16.3673V16.1505H3.9004V3.84951ZM33.4671 2.80663e-08C31.4627 2.80663e-08 29.5033 0.586495 27.8368 1.68531C26.1702 2.78412 24.8713 4.34591 24.1043 6.17317C23.3372 8.00046 23.1366 10.0111 23.5276 11.9509C23.9186 13.8907 24.8838 15.6725 26.3011 17.071C27.7184 18.4696 29.5241 19.422 31.49 19.8079C33.4559 20.1937 35.4935 19.9957 37.3453 19.2388C39.1971 18.4819 40.7798 17.2002 41.8934 15.5557C43.007 13.9112 43.6014 11.9778 43.6014 9.99999C43.5982 7.34877 42.5295 4.80705 40.6296 2.93236C38.7297 1.05766 36.1539 0.00309554 33.4671 2.80663e-08ZM33.4671 16.1505C32.2343 16.1505 31.0292 15.7898 30.0042 15.1139C28.9792 14.4381 28.1802 13.4776 27.7085 12.3537C27.2368 11.2299 27.1133 9.99321 27.3538 8.80007C27.5943 7.60701 28.188 6.51111 29.0597 5.65094C29.9314 4.79079 31.042 4.20501 32.2511 3.96769C33.4602 3.73038 34.7134 3.85218 35.8524 4.31769C36.9913 4.7832 37.9648 5.57153 38.6497 6.583C39.3346 7.59438 39.7002 8.78354 39.7002 9.99999C39.6976 11.6305 39.0401 13.1934 37.8717 14.3463C36.7034 15.4993 35.1194 16.148 33.4671 16.1505ZM79.8666 2.80663e-08C77.8618 -0.00014812 75.9027 0.586206 74.236 1.68493C72.5693 2.78365 71.2703 4.34538 70.5031 6.17263C69.736 7.99984 69.5351 10.0106 69.9261 11.9504C70.317 13.8903 71.2822 15.6722 72.6995 17.0708C74.1167 18.4694 75.9225 19.4219 77.8887 19.8078C79.8539 20.1937 81.8918 19.9957 83.744 19.2389C85.5955 18.482 87.1782 17.2003 88.2916 15.5558C89.4058 13.9113 90 11.9778 90 9.99999C89.9968 7.34892 88.9285 4.8073 87.0289 2.93263C85.1292 1.05796 82.5532 0.00330607 79.8666 2.80663e-08ZM79.8666 16.1505C78.6339 16.1506 77.4288 15.79 76.4034 15.1143C75.3783 14.4386 74.5793 13.478 74.1074 12.3542C73.6355 11.2304 73.512 9.99368 73.7523 8.80054C73.9928 7.60748 74.5864 6.5115 75.4581 5.65122C76.3297 4.79098 77.4407 4.20513 78.6497 3.96775C79.8587 3.73037 81.1119 3.85212 82.2506 4.31762C83.39 4.78311 84.3635 5.57143 85.0486 6.58292C85.733 7.59438 86.0988 8.78354 86.0988 9.99999C86.0964 11.6303 85.439 13.1931 84.2703 14.346C83.1024 15.4989 81.5188 16.1478 79.8666 16.1505ZM56.6664 2.80663e-08C54.662 2.80663e-08 52.7027 0.586495 51.0361 1.68531C49.3695 2.78412 48.0706 4.34591 47.3036 6.17317C46.5365 8.00046 46.3359 10.0111 46.7269 11.9509C47.118 13.8907 48.0831 15.6725 49.5004 17.071C50.9177 18.4696 52.7234 19.422 54.6893 19.8079C56.6551 20.1937 58.6928 19.9957 60.5446 19.2388C62.3965 18.4819 63.9791 17.2002 65.0928 15.5557C66.2063 13.9112 66.8007 11.9778 66.8007 9.99999C66.7975 7.34877 65.7288 4.80705 63.8289 2.93236C61.9291 1.05766 59.3533 0.00309554 56.6664 2.80663e-08ZM56.6664 16.1505C55.5178 16.151 54.3915 15.8384 53.4115 15.2472C52.4317 14.6559 51.6364 13.809 51.1135 12.7999C50.5907 11.7908 50.3605 10.6587 50.4486 9.52873C50.5366 8.39867 50.9393 7.31462 51.6123 6.39618C52.2853 5.47778 53.2024 4.76071 54.2623 4.32414C55.3222 3.88756 56.4838 3.74847 57.6188 3.92221C58.7538 4.09596 59.8181 4.57577 60.6941 5.30871C61.5702 6.04163 62.224 6.99922 62.5834 8.07563H56.6664V11.9244H62.5834C62.1718 13.1527 61.3788 14.222 60.3167 14.9805C59.2546 15.7391 57.9775 16.1484 56.6664 16.1505Z" fill="white"/>
</svg>
