<svg width="17" height="15" viewBox="0 0 17 15" fill="none" xmlns="http://www.w3.org/2000/svg">
<path d="M16 8.5C16.5523 8.5 17 8.05228 17 7.5C17 6.94772 16.5523 6.5 16 6.5V8.5ZM0.292892 6.79289C-0.097632 7.18342 -0.097632 7.81658 0.292892 8.20711L6.65685 14.5711C7.04738 14.9616 7.68054 14.9616 8.07107 14.5711C8.46159 14.1805 8.46159 13.5474 8.07107 13.1569L2.41421 7.5L8.07107 1.84315C8.46159 1.45262 8.46159 0.819456 8.07107 0.428932C7.68054 0.0384079 7.04738 0.0384079 6.65685 0.428932L0.292892 6.79289ZM16 6.5L0.999999 6.5V8.5L16 8.5V6.5Z" fill="#1A1A1A"/>
</svg>
