<svg width="27" height="22" viewBox="0 0 27 22" fill="none" xmlns="http://www.w3.org/2000/svg">
<path d="M1.89453 6.29412V18.6471C1.89453 19.9466 2.70549 21 3.70585 21H24.0832C25.0836 21 25.8945 19.9466 25.8945 18.6471V6.29412C25.8945 4.99462 25.0836 3.94118 24.0832 3.94118H20.2107C19.787 3.94118 19.3766 3.7482 19.0511 3.39582L17.3417 1.54536C17.0162 1.19298 16.6059 1 16.1821 1H10.7957C10.3154 1 9.85464 1.2479 9.51495 1.68916L8.31185 3.25202C7.97216 3.69328 7.51144 3.94118 7.03105 3.94118H3.70585C2.70549 3.94118 1.89453 4.99462 1.89453 6.29412Z" stroke="#1A1A1A" stroke-width="2" stroke-linecap="round"/>
<circle cx="13.8945" cy="11.5557" r="4" stroke="#1A1A1A" stroke-width="2"/>
</svg>
