<svg width="25" height="22" viewBox="0 0 25 22" fill="none" xmlns="http://www.w3.org/2000/svg">
<path d="M25 1.83333C25 0.82081 24.1792 0 23.1667 0L1.83333 0C0.82081 0 0 0.82081 0 1.83333C0 2.84585 0.82081 3.66667 1.83333 3.66667L23.1667 3.66667C24.1792 3.66667 25 2.84585 25 1.83333ZM25 11C25 9.98748 24.1792 9.16667 23.1667 9.16667L1.83333 9.16667C0.82081 9.16667 0 9.98748 0 11C0 12.0125 0.82081 12.8333 1.83333 12.8333L23.1667 12.8333C24.1792 12.8333 25 12.0125 25 11ZM23.1667 22C24.1792 22 25 21.1792 25 20.1667C25 19.1541 24.1792 18.3333 23.1667 18.3333L1.83333 18.3333C0.82081 18.3333 0 19.1541 0 20.1667C0 21.1792 0.82081 22 1.83333 22L23.1667 22Z" fill="#222222"/>
</svg>
