<svg width="20" height="22" viewBox="0 0 20 22" fill="none" xmlns="http://www.w3.org/2000/svg">
<path fill-rule="evenodd" clip-rule="evenodd" d="M18.1429 18.1429V8.14286L11 1H3.85714C3.09938 1 2.37266 1.30102 1.83684 1.83684C1.30102 2.37266 1 3.09938 1 3.85714V18.1429C1 18.9006 1.30102 19.6273 1.83684 20.1632C2.37266 20.699 3.09938 21 3.85714 21H15.2857C16.0435 21 16.7702 20.699 17.306 20.1632C17.8418 19.6273 18.1429 18.9006 18.1429 18.1429V18.1429Z" stroke="#1A1A1A" stroke-width="2" stroke-linecap="round" stroke-linejoin="round"/>
<path d="M11 1V5.28571C11 6.04348 11.301 6.7702 11.8368 7.30602C12.3727 7.84184 13.0994 8.14286 13.8571 8.14286H18.1429" stroke="#1A1A1A" stroke-width="2" stroke-linecap="round" stroke-linejoin="round"/>
</svg>
