<svg width="22" height="22" viewBox="0 0 22 22" fill="none" xmlns="http://www.w3.org/2000/svg">
<path d="M10.4444 1H2.11111C1.81643 1 1.53381 1.11706 1.32544 1.32544C1.11706 1.53381 1 1.81643 1 2.11111V19.8889C1 20.1836 1.11706 20.4662 1.32544 20.6746C1.53381 20.8829 1.81643 21 2.11111 21H19.8889C20.1836 21 20.4662 20.8829 20.6746 20.6746C20.8829 20.4662 21 20.1836 21 19.8889V11.5556" stroke="#1A1A1A" stroke-width="2" stroke-linecap="round" stroke-linejoin="round"/>
<path d="M11.001 6.55556V11M21.0004 1V5.44444M15.4454 11H11.001" stroke="#1A1A1A" stroke-width="2" stroke-linecap="round"/>
<path d="M21 1L11 11" stroke="#1A1A1A" stroke-width="2"/>
<path d="M21.0001 1H16.5557" stroke="#1A1A1A" stroke-width="2" stroke-linecap="round"/>
</svg>
