<svg width="22" height="22" viewBox="0 0 22 22" fill="none" xmlns="http://www.w3.org/2000/svg">
<path d="M2.18872 17C2.18872 16.4477 1.741 16 1.18871 16C0.636428 16 0.188716 16.4477 0.188721 17L2.18872 17ZM21.1885 16.9763C21.1754 16.4242 20.7172 15.9872 20.1651 16.0003C19.613 16.0134 19.176 16.4715 19.1891 17.0237L21.1885 16.9763ZM10.0581 15C10.0581 15.5523 10.5058 16 11.0581 16C11.6104 16 12.0581 15.5523 12.0581 15H10.0581ZM11.7652 0.292893C11.3747 -0.0976311 10.7415 -0.0976311 10.351 0.292893L3.98705 6.65685C3.59652 7.04738 3.59652 7.68054 3.98705 8.07107C4.37757 8.46159 5.01074 8.46159 5.40126 8.07107L11.0581 2.41421L16.715 8.07107C17.1055 8.46159 17.7387 8.46159 18.1292 8.07107C18.5197 7.68054 18.5197 7.04738 18.1292 6.65685L11.7652 0.292893ZM1.18872 17C0.188721 17 0.188721 17 0.188721 17.0001C0.188721 17.0001 0.188721 17.0002 0.188721 17.0002C0.188721 17.0004 0.188721 17.0006 0.188721 17.0008C0.188721 17.0014 0.188721 17.0021 0.188721 17.0031C0.188722 17.0051 0.188722 17.008 0.188724 17.0119C0.188727 17.0196 0.188734 17.031 0.188747 17.0458C0.188773 17.0754 0.188825 17.1187 0.188928 17.1738C0.189135 17.2838 0.189547 17.4409 0.190371 17.6294C0.192017 18.006 0.195309 18.5091 0.201906 19.0131C0.208478 19.515 0.218421 20.0257 0.233675 20.4142C0.24119 20.6056 0.250561 20.7831 0.26304 20.9193C0.268791 20.9821 0.277784 21.0665 0.293717 21.1477C0.300104 21.1802 0.317567 21.2666 0.357234 21.3644C0.37514 21.4085 0.42207 21.5181 0.51694 21.6331C0.603761 21.7385 0.86036 22 1.29342 22V20C1.72321 20 1.97659 20.2596 2.06024 20.3611C2.15194 20.4723 2.19575 20.5761 2.21059 20.6127C2.24412 20.6953 2.25564 20.7592 2.25628 20.7625C2.26071 20.7851 2.25897 20.7835 2.2547 20.7369C2.24715 20.6544 2.23934 20.5194 2.23214 20.3358C2.21795 19.9743 2.20826 19.485 2.20174 18.9869C2.19524 18.4909 2.19198 17.994 2.19035 17.6206C2.18954 17.4341 2.18913 17.2787 2.18892 17.17C2.18882 17.1157 2.18877 17.073 2.18875 17.044C2.18873 17.0295 2.18873 17.0185 2.18872 17.011C2.18872 17.0073 2.18872 17.0045 2.18872 17.0027C2.18872 17.0018 2.18872 17.0011 2.18872 17.0006C2.18872 17.0004 2.18872 17.0002 2.18872 17.0001C2.18872 17.0001 2.18872 17 2.18872 17C2.18872 17 2.18872 17 1.18872 17ZM1.29342 22H20.0527V20H1.29342V22ZM20.0527 22C20.4576 22 20.7163 21.7731 20.8276 21.6452C20.9371 21.5194 20.9931 21.3943 21.0179 21.3337C21.0706 21.2048 21.096 21.0785 21.1093 21.0036C21.1391 20.8365 21.157 20.6342 21.1694 20.4377C21.1948 20.0329 21.2047 19.5095 21.2073 19.0052C21.2099 18.4964 21.2052 17.9895 21.1999 17.6109C21.1972 17.4213 21.1944 17.2632 21.1922 17.1523C21.1911 17.0968 21.1902 17.0531 21.1896 17.0232C21.1892 17.0082 21.189 16.9966 21.1888 16.9887C21.1887 16.9848 21.1886 16.9818 21.1886 16.9797C21.1886 16.9786 21.1886 16.9778 21.1885 16.9773C21.1885 16.977 21.1885 16.9768 21.1885 16.9766C21.1885 16.9765 21.1885 16.9765 21.1885 16.9764C21.1885 16.9764 21.1885 16.9763 20.1888 17C19.1891 17.0237 19.1891 17.0237 19.1891 17.0237C19.1891 17.0237 19.1891 17.0237 19.1891 17.0237C19.1891 17.0238 19.1891 17.024 19.1891 17.0242C19.1891 17.0246 19.1891 17.0252 19.1891 17.0261C19.1892 17.0279 19.1892 17.0306 19.1893 17.0342C19.1895 17.0415 19.1897 17.0524 19.19 17.0667C19.1907 17.0953 19.1916 17.1375 19.1926 17.1914C19.1947 17.2993 19.1975 17.4537 19.2001 17.6391C19.2053 18.0105 19.2099 18.5036 19.2073 18.9948C19.2048 19.4905 19.195 19.9671 19.1733 20.3123C19.1621 20.4908 19.1496 20.601 19.1404 20.6526C19.1342 20.6871 19.138 20.6468 19.1667 20.5765C19.1796 20.5451 19.2229 20.4425 19.3192 20.3319C19.4174 20.2191 19.6623 20 20.0527 20V22ZM12.0581 15V1H10.0581V15H12.0581Z" fill="#1A1A1A"/>
</svg>
