<svg width="19" height="20" viewBox="0 0 19 20" fill="none" xmlns="http://www.w3.org/2000/svg">
<path d="M18.1533 16.3216C17.6794 15.1989 16.9915 14.1792 16.1282 13.3191C15.2675 12.4566 14.2479 11.7689 13.1257 11.294C13.1124 11.2873 13.11 11.271 13.122 11.2622C14.6723 10.13 15.6785 8.29732 15.6785 6.23116C15.6785 2.78894 12.8895 0 9.4473 0C6.00509 0 3.21614 2.78894 3.21614 6.23116C3.21614 8.29733 4.22229 10.13 5.77263 11.2647C5.78463 11.2735 5.78221 11.2898 5.76891 11.2965C4.64328 11.7714 3.63323 12.4523 2.76639 13.3216C1.90386 14.1823 1.21615 15.2019 0.741269 16.3241C0.274742 17.4227 0.023133 18.6006 6.28291e-05 19.794C-0.000607787 19.8208 0.0040958 19.8475 0.0138966 19.8724C0.0236973 19.8974 0.0383969 19.9202 0.0571292 19.9394C0.0758614 19.9586 0.0982473 19.9738 0.122968 19.9842C0.147688 19.9946 0.174243 20 0.201068 20H1.70861C1.81916 20 1.9071 19.9121 1.90961 19.804C1.95986 17.8643 2.73876 16.0477 4.11564 14.6709C5.54026 13.2462 7.43222 12.4623 9.4473 12.4623C11.4624 12.4623 13.3543 13.2462 14.779 14.6709C16.0706 15.9625 16.4535 17.7606 16.8963 19.4676C16.9544 19.6916 16.9545 20 17.186 20H18.6935C18.7204 20 18.7469 19.9946 18.7716 19.9842C18.7963 19.9738 18.8187 19.9586 18.8375 19.9394C18.8562 19.9202 18.8709 19.8974 18.8807 19.8724C18.8905 19.8475 18.8952 19.8208 18.8945 19.794C18.8694 18.593 18.6207 17.4246 18.1533 16.3216ZM9.4473 10.5528C8.29403 10.5528 7.2086 10.103 6.39202 9.28643C5.57544 8.46985 5.12569 7.38442 5.12569 6.23116C5.12569 5.07789 5.57544 3.99246 6.39202 3.17588C7.2086 2.3593 8.29403 1.90955 9.4473 1.90955C10.6006 1.90955 11.686 2.3593 12.5026 3.17588C13.3192 3.99246 13.7689 5.07789 13.7689 6.23116C13.7689 7.38442 13.3192 8.46985 12.5026 9.28643C11.686 10.103 10.6006 10.5528 9.4473 10.5528Z" fill="#1A1A1A"/>
</svg>
